<svg xmlns="http://www.w3.org/2000/svg" viewBox="0 0 3204 1216">
<style>.dark{fill:#000000}.accent{fill:#000000}</style>
<g class="dark" transform="translate(0.000000,1216.000000) scale(0.100000,-0.100000)">
<path d="M13185 7420 c-27 -11 -57 -20 -66 -20 -9 0 -26 -9 -39 -20 -13 -11
-31 -20 -40 -20 -10 0 -23 -7 -30 -15 -6 -8 -21 -17 -31 -20 -27 -9 -134 -81
-212 -143 -100 -80 -220 -213 -293 -324 -36 -57 -77 -119 -90 -139 -13 -19
-24 -41 -24 -49 0 -7 -6 -21 -14 -29 -13 -15 -21 -34 -56 -131 -7 -19 -21 -56
-32 -82 -10 -26 -18 -63 -18 -82 0 -20 -9 -53 -20 -73 -17 -32 -20 -57 -20
-158 0 -187 -6 -218 -52 -270 -36 -41 -44 -45 -86 -45 -26 -1 -65 -5 -87 -9
-22 -5 -65 -14 -95 -20 -38 -8 -64 -21 -87 -43 -40 -39 -41 -57 -7 -98 l26
-31 148 3 c168 3 181 -1 201 -75 8 -29 9 -319 4 -986 -8 -1059 -1 -965 -79
-1049 -37 -40 -142 -92 -186 -92 -17 0 -47 -7 -67 -15 -49 -21 -250 -21 -300
0 -19 8 -44 15 -56 15 -22 0 -75 30 -122 68 -39 32 -65 73 -96 147 l-24 60 -3
1056 -3 1056 -24 23 -25 23 -77 -17 c-43 -10 -92 -24 -110 -31 -17 -8 -59 -19
-94 -25 -35 -6 -75 -18 -91 -26 -15 -8 -46 -14 -68 -14 -27 0 -51 -7 -67 -20
-17 -13 -41 -20 -70 -20 -49 0 -101 -21 -128 -50 -16 -18 -17 -21 -1 -45 14
-22 24 -25 72 -25 99 0 194 -77 230 -188 31 -94 29 -1725 -2 -1792 -42 -89
-167 -180 -249 -180 -18 0 -49 -7 -68 -15 -48 -20 -200 -20 -257 0 -23 8 -56
15 -72 15 -68 0 -188 87 -228 166 l-25 49 -5 1890 -5 1890 -47 3 c-30 2 -59
-3 -80 -14 -18 -9 -72 -21 -120 -25 -48 -5 -101 -15 -117 -24 -17 -8 -44 -15
-60 -15 -17 0 -50 -6 -73 -14 -24 -8 -72 -20 -108 -27 -36 -6 -77 -18 -92 -25
-15 -8 -36 -14 -47 -14 -32 0 -70 -21 -77 -43 -10 -33 21 -47 101 -47 129 0
220 -69 269 -203 l26 -72 0 -1590 0 -1590 -23 -65 c-56 -157 -139 -230 -264
-230 -61 0 -72 -3 -93 -24 -53 -57 -64 -56 567 -57 3537 -5 4848 0 4851 18 5
37 -66 63 -174 63 -107 0 -134 10 -207 79 -99 92 -120 206 -117 631 9 1121 15
1457 29 1473 12 15 45 17 285 17 301 0 319 4 366 76 27 40 25 55 -13 92 l-33
32 -302 0 -302 0 -19 39 c-19 36 -20 49 -11 207 5 93 12 293 16 444 5 242 8
280 25 313 10 21 19 48 19 60 1 47 84 149 171 208 l64 44 95 0 c66 0 108 -5
135 -16 133 -55 285 -70 362 -35 145 65 117 268 -48 351 -78 40 -247 27 -339
-27 -8 -4 -26 -13 -40 -19 -14 -6 -34 -16 -45 -22 -11 -6 -32 -17 -46 -24 -15
-7 -32 -20 -39 -28 -7 -8 -16 -15 -21 -15 -40 0 -234 -178 -387 -355 -83 -97
-241 -397 -258 -493 -4 -20 -14 -53 -24 -72 -10 -19 -20 -69 -24 -110 -4 -41
-14 -94 -22 -118 -9 -28 -14 -85 -14 -163 0 -114 -1 -121 -25 -144 l-24 -25
-435 0 -435 0 -19 25 c-59 74 -25 932 41 1025 9 13 17 31 17 39 0 47 109 163
194 206 52 26 224 28 271 3 59 -31 217 -61 275 -52 143 22 204 126 146 248
-28 59 -64 95 -123 125 -57 28 -186 29 -258 1z m271 -1816 c35 -4 61 -15 78
-31 l26 -24 0 -905 c0 -799 -2 -909 -16 -935 -8 -17 -18 -53 -21 -82 -11 -101
-122 -227 -200 -227 -12 0 -37 -7 -56 -15 -50 -21 -311 -21 -347 0 -14 8 -41
15 -60 15 -84 2 -213 125 -227 216 -3 22 -13 53 -22 69 -14 27 -16 124 -16
951 0 1042 -7 959 79 967 72 6 729 7 782 1z M47 7033 c-19 -19 14 -53 52 -53
15 0 49 -11 75 -24 26 -13 67 -27 92 -31 25 -3 65 -20 89 -36 43 -29 125 -118
125 -136 0 -6 9 -18 20 -28 11 -10 20 -25 20 -34 0 -9 9 -29 20 -46 11 -16 20
-38 20 -49 0 -10 9 -33 19 -50 10 -17 22 -51 26 -76 4 -25 14 -54 21 -65 8
-11 14 -30 14 -43 0 -13 5 -33 12 -45 10 -19 22 -62 58 -202 7 -27 18 -61 25
-75 7 -14 17 -48 23 -75 6 -28 18 -64 26 -80 9 -17 16 -42 16 -58 0 -15 9 -44
20 -64 11 -21 20 -51 20 -68 0 -16 9 -43 20 -60 11 -16 20 -43 20 -60 1 -16 8
-48 16 -70 9 -22 20 -60 25 -85 10 -47 44 -159 61 -200 6 -14 14 -41 19 -60 8
-36 28 -100 55 -180 8 -25 19 -61 24 -81 5 -19 16 -49 25 -65 8 -16 15 -44 15
-62 0 -17 9 -49 20 -69 11 -21 20 -50 20 -65 0 -15 9 -51 20 -80 11 -29 20
-63 20 -76 0 -12 9 -40 19 -60 11 -21 23 -56 27 -77 4 -22 13 -49 20 -60 8
-11 14 -29 14 -40 0 -11 16 -72 36 -135 19 -63 39 -132 43 -152 5 -21 13 -43
19 -50 5 -7 13 -35 17 -63 4 -27 16 -69 26 -92 11 -23 19 -50 19 -60 1 -10 9
-36 20 -58 11 -22 19 -57 20 -78 0 -21 9 -55 19 -75 11 -20 24 -59 29 -87 9
-47 26 -102 42 -135 10 -20 123 -27 136 -8 20 27 103 273 134 395 6 23 17 54
25 70 8 15 15 35 15 43 0 9 9 33 20 55 11 22 20 51 20 65 0 14 9 42 20 63 11
20 20 52 20 69 0 18 9 47 20 63 11 17 20 39 20 50 0 11 7 33 15 49 9 17 20 50
26 75 5 25 15 62 23 81 7 19 25 71 40 115 14 44 37 112 52 150 14 39 32 98 39
131 6 34 19 72 29 85 9 13 16 32 16 42 0 10 9 35 20 57 11 22 20 50 20 62 0
13 9 37 20 53 11 17 20 45 20 63 0 18 9 50 19 70 11 20 24 55 29 77 12 46 40
130 53 160 13 30 39 104 53 155 8 25 21 59 30 75 9 17 16 41 16 55 0 14 6 35
14 46 8 11 18 38 22 60 3 21 15 56 25 76 11 21 19 50 19 65 0 15 9 42 20 58
11 17 20 38 20 47 0 27 44 72 63 65 23 -9 57 -67 57 -96 0 -14 7 -32 16 -42 9
-10 18 -37 21 -61 3 -24 14 -54 24 -67 11 -13 19 -31 19 -39 0 -16 44 -151 60
-187 5 -11 23 -60 39 -110 16 -49 36 -103 45 -120 9 -16 16 -37 16 -45 0 -8 7
-28 15 -44 8 -16 18 -47 21 -70 4 -22 13 -48 20 -57 8 -8 18 -36 22 -61 5 -25
16 -56 25 -69 10 -13 17 -34 17 -47 0 -12 9 -40 20 -62 11 -22 20 -47 20 -57
0 -10 7 -31 16 -48 9 -16 22 -52 29 -80 14 -53 39 -127 55 -160 11 -25 48
-129 59 -170 5 -16 16 -43 25 -60 9 -16 16 -40 16 -53 0 -12 9 -39 20 -59 11
-21 20 -48 20 -61 0 -12 9 -40 20 -62 11 -22 20 -52 20 -67 0 -16 7 -39 16
-51 9 -13 22 -47 29 -75 7 -29 25 -83 40 -122 14 -38 32 -90 40 -115 8 -25 36
-110 63 -190 28 -80 53 -157 56 -171 18 -83 117 -111 170 -48 14 17 26 43 26
57 0 15 9 41 20 57 11 17 20 47 20 70 0 22 9 57 20 78 11 20 20 46 20 57 0 11
7 37 16 58 9 20 22 62 29 92 7 30 23 87 35 125 12 39 30 99 40 135 21 75 37
123 56 165 7 17 17 53 23 80 5 28 17 64 25 80 9 17 16 43 16 58 0 15 9 45 20
67 11 22 20 50 20 62 0 13 9 37 20 53 11 17 20 47 20 70 0 22 9 58 20 80 11
22 19 48 20 58 0 10 8 39 19 65 17 43 73 220 123 387 11 39 29 88 39 111 11
23 19 51 19 63 0 11 9 38 20 58 11 21 20 54 21 73 1 88 93 183 153 160 15 -5
38 -10 51 -10 47 0 195 -119 231 -186 32 -60 40 -76 61 -124 19 -42 25 -59 54
-142 6 -18 20 -50 30 -70 10 -20 19 -45 19 -55 0 -10 16 -49 36 -88 36 -72 84
-199 84 -224 0 -8 6 -22 13 -30 8 -9 21 -36 29 -61 30 -87 41 -115 59 -151 11
-20 19 -48 19 -62 0 -13 9 -36 20 -50 11 -14 20 -33 20 -42 0 -10 8 -36 19
-59 42 -92 101 -248 101 -266 0 -9 6 -24 14 -35 7 -11 18 -36 24 -55 6 -19 23
-66 37 -105 15 -38 31 -88 37 -110 5 -22 18 -57 29 -77 10 -20 19 -45 19 -55
0 -10 9 -35 20 -56 11 -20 20 -44 20 -52 0 -9 10 -35 22 -58 33 -62 33 -232 0
-295 -12 -23 -22 -50 -22 -60 0 -9 -9 -28 -20 -42 -11 -14 -20 -32 -20 -40 0
-9 -7 -25 -15 -38 -9 -12 -21 -36 -28 -55 -15 -41 -88 -169 -154 -272 -69
-107 -94 -138 -170 -213 -86 -85 -108 -101 -203 -150 -36 -19 -84 -53 -107
-77 -42 -42 -43 -45 -43 -109 0 -78 28 -141 87 -197 70 -66 101 -79 193 -79
79 0 83 1 111 32 30 31 129 226 129 253 0 8 9 32 20 52 11 21 20 47 20 58 0
11 9 34 20 50 11 17 20 39 20 50 0 11 9 37 20 58 11 20 20 43 20 50 0 7 9 29
20 50 11 20 20 43 20 49 0 17 44 123 57 140 6 7 15 27 19 43 4 17 15 46 26 65
10 19 18 43 18 53 0 10 9 30 20 44 11 14 20 35 20 47 0 11 9 35 20 51 11 17
20 36 20 44 0 14 26 76 61 143 10 20 19 44 19 52 0 13 40 106 100 231 10 22
28 63 40 90 11 28 30 67 40 87 11 20 20 43 20 50 0 12 20 59 61 140 11 20 19
43 19 50 0 7 9 24 20 38 11 14 20 32 20 40 0 8 9 32 20 53 11 20 20 42 20 48
0 5 18 48 40 95 22 47 40 90 40 95 0 6 9 28 20 50 11 21 29 57 40 78 11 22 20
46 20 54 0 8 9 26 20 40 11 14 20 33 20 44 0 10 9 32 20 48 11 17 20 35 20 42
0 7 26 68 59 135 32 68 61 133 65 145 4 12 18 41 31 65 14 24 30 54 36 68 6
14 19 42 30 62 10 20 19 44 19 53 0 9 8 28 18 43 29 44 42 66 53 92 6 14 15
32 20 40 5 8 18 33 29 55 11 22 29 54 40 70 11 17 28 46 39 65 34 62 187 190
226 190 22 0 121 27 144 40 27 14 28 56 2 70 -13 6 -185 10 -491 10 l-471 0
-25 -25 c-42 -42 -25 -55 115 -86 58 -13 128 -54 161 -96 29 -37 29 -188 0
-252 -11 -24 -20 -52 -20 -63 0 -12 -8 -39 -19 -62 -10 -23 -28 -72 -40 -111
-13 -38 -31 -92 -41 -120 -10 -27 -28 -77 -40 -110 -12 -33 -30 -78 -40 -100
-22 -49 -38 -95 -55 -157 -8 -25 -20 -57 -28 -70 -8 -12 -18 -37 -22 -55 -3
-17 -13 -37 -21 -44 -8 -6 -14 -21 -14 -33 0 -12 -9 -38 -20 -59 -11 -20 -20
-42 -20 -48 0 -5 -12 -36 -26 -67 -14 -31 -29 -66 -34 -77 -5 -11 -20 -46 -34
-79 -14 -32 -26 -64 -26 -70 0 -7 -13 -27 -29 -46 -44 -52 -60 -39 -110 88
-52 130 -62 156 -93 247 -6 17 -19 49 -29 73 -11 23 -19 53 -19 66 0 12 -9 31
-20 41 -11 10 -20 29 -20 42 0 13 -8 38 -17 56 -10 18 -23 50 -29 72 -18 59
-43 128 -54 147 -6 10 -23 57 -39 105 -16 49 -44 122 -61 163 -18 41 -35 91
-38 110 -2 19 -13 46 -23 59 -11 13 -19 33 -19 45 0 12 -9 38 -20 59 -11 20
-20 48 -20 62 0 14 -9 42 -20 62 -25 48 -25 51 6 112 35 68 123 120 200 121
32 0 64 26 64 51 -1 45 11 44 -552 49 l-533 5 -3 48 c-3 45 26 150 64 234 8
17 14 37 14 45 0 7 6 22 14 33 7 11 16 38 20 60 4 21 16 56 27 77 10 20 19 44
19 53 0 8 9 32 20 52 11 21 20 45 20 53 0 8 9 29 20 45 11 17 20 39 20 50 0
11 9 31 20 45 11 14 20 31 20 38 0 31 60 121 116 176 90 88 113 103 174 111
30 4 64 14 75 21 11 8 29 14 40 14 30 1 79 45 72 64 -6 15 -64 16 -608 14
-655 -3 -666 -4 -552 -54 32 -14 72 -31 88 -39 17 -7 60 -16 96 -20 72 -7 103
-27 155 -96 23 -31 24 -40 24 -175 0 -164 -18 -270 -83 -497 -14 -48 -28 -111
-32 -139 -4 -29 -14 -62 -21 -73 -8 -12 -17 -44 -20 -71 -4 -27 -15 -65 -26
-84 -10 -19 -18 -54 -18 -77 0 -24 -9 -60 -20 -80 -11 -21 -20 -51 -20 -68 0
-16 -9 -45 -20 -63 -11 -18 -20 -47 -20 -65 -1 -17 -8 -50 -16 -72 -8 -22 -21
-65 -28 -95 -8 -30 -18 -68 -24 -85 -6 -16 -22 -70 -36 -120 -26 -96 -48 -161
-78 -237 -10 -26 -18 -57 -18 -70 0 -13 -7 -33 -15 -45 -8 -12 -18 -43 -21
-70 -4 -26 -15 -62 -25 -79 -11 -17 -19 -44 -19 -60 0 -16 -9 -49 -20 -73 -11
-24 -20 -53 -20 -65 0 -12 -8 -37 -19 -56 -10 -19 -21 -52 -25 -72 -4 -21 -18
-50 -31 -65 -32 -38 -72 -19 -90 43 -7 23 -16 47 -21 55 -8 13 -27 62 -58 154
-8 22 -24 65 -36 95 -12 30 -28 78 -35 105 -8 28 -26 82 -40 120 -15 39 -31
88 -37 110 -5 22 -18 57 -29 77 -10 20 -19 44 -19 53 0 9 -9 33 -20 55 -11 22
-20 48 -20 60 0 11 -9 37 -20 57 -11 21 -20 49 -20 63 0 14 -7 39 -16 55 -8
17 -28 68 -44 115 -16 47 -43 121 -59 165 -17 44 -34 96 -37 115 -4 19 -15 51
-25 70 -11 19 -19 42 -19 50 -1 8 -9 33 -20 55 -11 22 -20 54 -20 70 0 17 -9
44 -20 60 -11 17 -20 39 -20 49 0 10 -8 37 -19 60 -10 23 -23 59 -29 81 -11
44 -26 87 -53 155 -22 57 -59 175 -59 192 0 7 -6 25 -14 40 -8 15 -17 42 -21
60 -4 18 -16 50 -26 70 -11 21 -19 48 -19 60 0 13 -9 37 -20 53 -11 17 -20 44
-20 61 0 17 -9 43 -20 57 -11 14 -20 34 -20 46 0 25 -28 41 -73 41 -44 0 -87
-33 -87 -66 0 -14 -7 -38 -15 -53 -8 -16 -19 -51 -25 -77 -6 -27 -17 -62 -24
-79 -8 -16 -26 -68 -40 -115 -14 -47 -39 -121 -55 -165 -17 -44 -34 -96 -37
-115 -3 -19 -12 -45 -20 -57 -7 -12 -17 -41 -20 -65 -4 -24 -15 -59 -26 -78
-10 -19 -18 -42 -18 -51 0 -9 -9 -36 -20 -60 -11 -24 -20 -57 -20 -74 0 -16
-9 -43 -20 -60 -11 -16 -20 -38 -20 -49 0 -17 -44 -158 -68 -216 -6 -14 -23
-65 -38 -115 -15 -49 -31 -95 -35 -100 -4 -6 -12 -29 -18 -50 -15 -62 -41
-136 -62 -181 -10 -23 -19 -56 -19 -75 0 -19 -9 -47 -20 -64 -11 -16 -20 -43
-20 -58 0 -15 -9 -45 -20 -67 -11 -22 -20 -50 -20 -62 0 -13 -9 -36 -20 -53
-11 -16 -20 -39 -20 -51 0 -25 -43 -171 -62 -210 -8 -16 -25 -65 -37 -109 -13
-44 -29 -93 -37 -110 -8 -16 -17 -46 -20 -65 -12 -63 -54 -123 -80 -113 -19 7
-44 56 -44 85 0 13 -7 36 -15 51 -8 15 -17 45 -21 65 -4 20 -15 53 -25 72 -11
19 -19 50 -19 68 0 18 -9 50 -20 72 -11 22 -20 50 -20 62 -1 13 -9 41 -20 63
-11 22 -19 50 -20 63 0 13 -7 37 -17 55 -9 18 -22 59 -29 92 -6 33 -17 74 -23
90 -6 17 -20 64 -32 105 -11 41 -29 102 -40 136 -10 33 -19 67 -19 76 0 8 -7
28 -15 45 -8 16 -18 52 -22 79 -3 27 -14 65 -25 84 -10 19 -18 40 -18 47 0 7
-9 30 -20 50 -12 23 -20 57 -20 88 0 33 -7 60 -20 80 -11 17 -20 46 -20 65 0
19 -7 49 -16 65 -9 17 -22 55 -29 85 -19 76 -35 137 -52 190 -22 73 -39 132
-53 185 -7 28 -18 66 -25 85 -69 187 -81 296 -41 364 39 66 104 116 151 116
21 0 57 9 79 19 23 10 59 21 80 25 45 6 82 37 73 60 -6 14 -76 16 -700 16
-382 0 -697 -3 -700 -7z M8369 5856 c-3 -4 -41 -10 -85 -15 -102 -12 -207 -36
-266 -61 -26 -11 -54 -20 -63 -20 -9 0 -33 -9 -53 -19 -20 -11 -73 -36 -117
-58 -44 -21 -94 -48 -113 -60 -18 -13 -35 -23 -38 -23 -8 0 -205 -160 -240
-194 -115 -116 -314 -409 -314 -464 0 -9 -9 -30 -20 -47 -11 -16 -20 -40 -20
-52 0 -12 -9 -39 -19 -60 -11 -21 -22 -72 -26 -113 -4 -41 -13 -85 -21 -97
-20 -32 -20 -322 0 -362 8 -15 18 -56 21 -92 4 -35 16 -81 26 -102 10 -21 19
-45 19 -53 0 -9 7 -28 15 -42 8 -15 21 -43 30 -62 53 -120 203 -298 318 -378
168 -118 403 -191 645 -199 187 -7 380 32 524 104 18 9 42 21 53 27 11 5 34
16 50 25 94 47 236 170 326 282 75 94 80 110 47 133 -40 28 -63 19 -145 -56
-86 -80 -127 -112 -160 -122 -12 -4 -27 -13 -33 -21 -7 -8 -22 -15 -33 -15
-11 0 -28 -7 -38 -16 -55 -50 -330 -77 -456 -45 -45 12 -90 21 -101 21 -11 0
-31 9 -45 20 -14 11 -33 20 -41 20 -9 0 -29 8 -44 18 -15 10 -34 22 -43 27
-136 82 -324 280 -353 372 -4 12 -13 27 -21 33 -8 7 -15 22 -15 34 0 11 -9 35
-20 51 -11 17 -20 38 -20 48 0 10 -9 37 -19 60 -11 23 -23 76 -26 117 -4 41
-14 87 -21 102 -20 38 -20 348 0 386 7 15 17 61 21 104 4 44 15 91 26 112 10
20 19 47 19 60 0 13 6 29 14 35 8 7 17 24 21 38 3 15 15 38 26 51 10 14 19 29
19 34 0 52 257 277 319 278 9 0 36 10 61 21 67 31 275 31 342 0 26 -11 56 -21
68 -21 18 0 58 -17 120 -52 8 -4 26 -14 40 -20 14 -7 54 -36 90 -64 101 -80
156 -104 239 -104 67 0 69 1 104 39 123 136 44 340 -161 413 -88 31 -393 64
-413 44z M15655 5848 c-118 -28 -194 -51 -230 -68 -22 -10 -47 -21 -55 -25 -8
-3 -33 -17 -55 -30 -22 -14 -51 -30 -65 -37 -74 -37 -237 -182 -321 -288 -49
-61 -89 -117 -89 -124 0 -7 -6 -19 -14 -25 -46 -38 -153 -308 -187 -471 -62
-294 -52 -562 31 -812 111 -331 383 -589 685 -648 221 -44 315 -50 431 -30
253 45 352 79 553 189 42 23 204 192 234 243 64 110 6 157 -93 76 -96 -79
-135 -107 -166 -122 -17 -8 -35 -19 -38 -25 -4 -6 -17 -11 -29 -11 -13 0 -33
-8 -47 -17 -75 -53 -465 -53 -540 0 -14 9 -32 17 -41 17 -17 0 -103 42 -154
75 -85 55 -227 201 -272 279 -43 75 -113 227 -113 245 0 12 -8 36 -17 54 -29
56 -53 353 -34 418 22 73 18 73 471 86 223 7 450 17 505 23 55 6 170 14 255
18 85 4 164 12 175 18 11 7 52 15 92 19 112 11 118 22 116 195 -1 116 -5 146
-22 185 -12 26 -21 55 -22 64 0 9 -13 39 -29 66 -16 28 -37 64 -46 80 -54 96
-181 218 -303 290 -9 5 -27 16 -41 25 -26 16 -131 50 -213 69 -56 13 -255 12
-312 -1z m153 -159 c13 -5 32 -9 42 -9 47 0 226 -165 269 -247 35 -66 39 -77
61 -157 30 -106 24 -218 -14 -276 l-25 -38 -93 -7 c-176 -13 -973 -2 -991 14
-21 17 -22 50 -2 78 8 12 19 53 25 93 6 40 17 81 25 93 8 12 15 27 15 34 0 7
15 38 33 69 98 168 120 196 202 258 33 24 71 53 85 64 60 45 279 63 368 31z
M18617 2953 c-61 -5 -69 -24 -27 -63 26 -24 31 -36 27 -58 -13 -63 -25 -108
-35 -132 -5 -14 -22 -65 -37 -115 -15 -49 -36 -111 -46 -137 -11 -26 -19 -59
-19 -73 0 -15 -9 -38 -20 -52 -11 -14 -20 -40 -20 -57 0 -17 -9 -51 -20 -75
-11 -24 -20 -53 -20 -65 0 -11 -7 -34 -15 -50 -9 -17 -20 -50 -26 -75 -5 -25
-16 -59 -23 -76 -30 -67 -63 -191 -55 -212 8 -21 65 -52 169 -92 66 -25 180
-28 223 -6 15 8 43 17 62 21 19 3 39 12 46 20 6 8 17 14 24 14 36 0 198 136
243 205 96 146 105 173 110 313 4 147 3 156 -42 206 -86 96 -256 104 -387 18
-22 -14 -39 -29 -39 -34 0 -6 -63 -38 -76 -38 -10 0 -2 37 11 54 8 11 15 31
15 45 0 14 9 46 20 70 11 24 20 53 20 65 1 11 9 39 20 61 11 22 20 47 20 55 0
8 17 60 36 115 53 149 53 150 -26 151 -36 0 -87 -1 -113 -3z m332 -589 c56
-50 78 -125 62 -210 -6 -34 -11 -73 -11 -88 0 -29 -25 -97 -68 -185 -33 -67
-152 -190 -192 -198 -16 -3 -37 -14 -46 -24 -26 -28 -180 -28 -217 1 -14 11
-30 20 -35 20 -6 0 -17 7 -25 15 -15 15 31 181 84 303 11 23 19 54 19 67 0 41
78 190 123 235 104 104 232 131 306 64z M19705 2953 c-69 -6 -74 -15 -32 -62
l36 -40 -14 -42 c-8 -23 -15 -51 -15 -63 0 -12 -9 -38 -20 -59 -11 -20 -20
-45 -20 -54 0 -10 -23 -83 -51 -163 -28 -80 -57 -167 -64 -195 -7 -27 -20 -63
-29 -80 -9 -16 -16 -42 -16 -58 0 -15 -9 -44 -20 -64 -11 -21 -20 -48 -20 -60
0 -13 -9 -40 -20 -60 -11 -21 -20 -48 -20 -61 0 -12 -9 -40 -19 -60 -11 -21
-22 -69 -26 -108 -9 -85 8 -114 66 -116 40 -1 127 36 136 58 3 8 10 14 15 14
12 0 68 56 68 68 0 5 7 12 15 16 17 6 21 36 5 36 -5 0 -10 -4 -10 -10 0 -5
-16 -24 -37 -42 -20 -18 -44 -41 -54 -51 -17 -18 -18 -18 -38 2 -12 12 -21 27
-21 34 0 34 30 148 44 169 9 12 16 36 16 53 0 17 9 47 20 68 11 20 20 48 20
62 0 14 8 42 19 63 10 20 21 53 25 72 3 19 12 49 20 65 8 17 26 71 41 120 16
50 39 122 52 160 14 39 31 93 38 122 7 28 20 62 29 75 9 12 16 36 16 52 0 16
10 48 21 72 38 74 24 80 -156 67z M26685 2953 c-70 -6 -76 -16 -33 -61 40 -41
41 -79 4 -147 -9 -16 -16 -43 -16 -58 0 -15 -9 -45 -20 -67 -11 -22 -20 -48
-20 -60 0 -11 -9 -37 -20 -57 -11 -21 -20 -51 -20 -68 0 -16 -9 -45 -20 -63
-11 -18 -20 -40 -20 -49 0 -17 -44 -158 -65 -208 -7 -16 -23 -64 -35 -105 -13
-41 -29 -91 -37 -110 -13 -33 -32 -100 -54 -184 -25 -99 56 -139 166 -82 46
24 50 41 15 59 -32 16 -38 66 -15 128 9 24 21 60 26 79 5 19 16 51 23 70 8 19
24 69 37 110 21 69 37 119 69 210 7 19 17 53 22 75 5 22 18 57 29 77 10 20 19
50 19 65 0 16 9 45 20 66 11 20 20 49 20 65 0 15 7 37 15 48 8 12 19 43 25 70
6 27 17 63 24 79 23 51 38 104 31 115 -6 10 -65 11 -170 3z M6393 2912 c-36
-5 -27 -20 17 -27 63 -11 84 -44 77 -127 -3 -36 -12 -79 -20 -95 -8 -15 -19
-51 -25 -78 -6 -28 -18 -64 -26 -80 -9 -17 -16 -40 -16 -51 0 -12 -9 -41 -20
-65 -11 -24 -20 -55 -20 -69 0 -14 -9 -42 -20 -63 -11 -20 -20 -48 -20 -63 0
-14 -9 -46 -19 -72 -11 -26 -41 -114 -67 -197 -55 -176 -60 -184 -133 -252
l-56 -52 220 1 c121 0 207 3 190 5 -16 3 -47 21 -68 41 -37 35 -38 39 -32 85
3 27 12 65 19 85 8 21 26 78 41 127 15 50 33 104 40 121 8 18 17 49 20 70 11
63 14 69 44 87 23 13 35 15 56 7 14 -5 92 -10 173 -10 161 0 263 22 360 79 24
14 51 31 61 36 123 70 190 267 130 380 -35 67 -137 145 -189 145 -11 0 -37 7
-58 16 -34 15 -576 28 -659 16z m574 -68 c76 -10 147 -73 164 -149 29 -132
-45 -294 -163 -351 -112 -56 -120 -58 -243 -60 -111 -2 -123 0 -157 22 -41 26
-46 40 -23 70 8 10 15 32 15 47 0 15 8 44 19 65 10 20 21 57 25 81 4 24 13 53
21 64 8 12 15 30 15 41 0 22 39 135 52 153 14 18 179 28 275 17z M16663 2912
c-52 -4 -58 -22 -8 -22 96 0 131 -73 89 -185 -8 -22 -21 -60 -28 -85 -8 -25
-19 -58 -25 -75 -6 -16 -29 -91 -52 -165 -22 -74 -49 -158 -60 -185 -10 -28
-19 -59 -19 -70 0 -12 -6 -30 -14 -41 -8 -11 -19 -46 -25 -77 -6 -32 -17 -68
-26 -80 -8 -12 -15 -34 -15 -50 0 -15 -9 -45 -20 -67 -11 -22 -20 -46 -20 -54
0 -19 -48 -76 -64 -76 -7 0 -23 -14 -35 -31 l-23 -31 284 6 c368 7 508 26 577
78 13 10 30 18 37 18 17 0 144 127 144 144 0 8 9 35 21 61 30 68 28 138 -6
205 -27 54 -76 110 -97 110 -5 0 -21 9 -35 20 -14 11 -36 20 -49 20 -61 0 -24
51 51 70 108 28 167 66 236 153 38 48 39 51 39 129 0 85 -15 126 -65 174 -31
31 -116 74 -145 74 -14 0 -38 8 -55 17 -26 15 -65 17 -290 18 -143 0 -279 -1
-302 -3z m509 -64 c79 -17 130 -62 158 -140 20 -54 21 -67 10 -93 -6 -16 -15
-41 -18 -55 -19 -88 -152 -200 -239 -200 -21 0 -47 -7 -57 -15 -20 -15 -177
-22 -210 -9 -29 11 -15 82 46 236 10 26 18 57 18 70 0 13 6 33 14 44 8 12 18
43 22 71 7 58 10 63 44 86 29 20 132 23 212 5z m-219 -568 c117 -17 172 -54
220 -149 34 -67 37 -143 7 -201 -11 -22 -20 -45 -20 -52 0 -17 -85 -108 -119
-126 -111 -61 -121 -64 -261 -69 -160 -7 -180 -1 -180 52 0 19 9 52 20 72 11
21 20 51 20 68 0 16 8 44 18 60 10 17 22 52 25 79 4 27 11 54 17 60 5 7 13 32
19 57 16 70 50 139 74 149 29 12 78 12 160 0z M21687 2911 c-27 -8 -47 -36
-47 -65 0 -17 -9 -48 -20 -69 -21 -38 -27 -107 -10 -107 5 0 21 17 34 38 58
91 135 128 282 134 61 3 118 1 128 -4 20 -11 20 -46 1 -72 -8 -11 -15 -32 -15
-48 0 -15 -9 -45 -20 -65 -11 -21 -20 -51 -20 -68 0 -17 -7 -41 -16 -54 -9
-12 -22 -48 -29 -79 -7 -31 -18 -73 -25 -92 -48 -136 -90 -267 -90 -280 0 -7
-7 -26 -15 -43 -8 -18 -19 -50 -24 -72 -31 -127 -86 -246 -127 -274 -18 -13
-40 -34 -49 -47 l-15 -24 192 0 192 0 -40 38 c-56 52 -67 74 -49 98 8 11 15
33 15 49 0 17 9 48 20 70 11 22 19 45 20 52 0 6 16 59 35 117 19 58 39 122 44
143 11 43 35 115 63 185 10 26 18 59 18 75 0 15 9 42 20 58 11 17 20 45 20 63
0 18 9 50 20 72 11 22 20 50 20 62 1 13 9 41 20 63 11 22 19 46 20 53 0 23 44
29 172 24 126 -5 127 -5 157 -36 28 -28 30 -38 33 -110 3 -82 21 -115 33 -59
13 59 47 169 61 196 17 35 18 77 2 77 -146 3 -1002 4 -1011 1z M14505 2848
c-73 -40 -84 -89 -32 -137 45 -43 92 -42 135 2 50 51 36 102 -35 132 -42 18
-42 18 -68 3z M18020 2844 c-66 -36 -78 -91 -28 -136 46 -40 97 -39 137 5 47
49 39 88 -24 126 -41 24 -50 24 -85 5z M28943 2846 c-70 -39 -84 -93 -35 -139
40 -38 97 -37 140 1 51 45 38 103 -30 136 -36 18 -45 19 -75 2z M9705 2643
c-90 -102 -147 -146 -236 -182 -92 -37 -96 -55 -12 -59 81 -4 82 -10 32 -156
-23 -67 -45 -134 -50 -151 -4 -16 -24 -75 -43 -130 -20 -55 -36 -109 -36 -120
0 -11 -9 -33 -20 -50 -14 -21 -20 -47 -20 -86 0 -54 2 -57 38 -82 39 -28 57
-27 142 4 53 19 190 156 166 165 -14 5 -25 0 -42 -22 -68 -86 -116 -113 -143
-80 -16 19 -4 112 20 152 11 17 19 42 19 55 1 13 9 42 20 64 11 22 19 46 20
53 0 7 8 34 19 60 10 26 30 83 44 127 32 96 61 178 65 185 2 3 36 7 75 10 60
4 72 8 75 24 5 24 -15 36 -49 29 -58 -11 -88 36 -54 84 8 12 20 45 25 74 6 28
17 57 27 64 16 12 13 45 -6 45 -5 0 -39 -35 -76 -77z M28340 2601 c-99 -101
-110 -109 -185 -137 -105 -38 -113 -62 -23 -66 63 -3 63 -3 66 -35 2 -17 -6
-52 -17 -77 -12 -25 -21 -55 -21 -68 0 -13 -9 -36 -20 -53 -11 -16 -20 -40
-20 -53 0 -13 -8 -44 -19 -70 -42 -104 -101 -310 -101 -349 0 -37 4 -45 37
-67 40 -27 68 -27 138 2 43 18 175 138 175 159 0 27 -28 11 -81 -47 -29 -33
-62 -60 -72 -60 -48 0 -70 36 -48 78 5 9 23 60 39 112 38 116 50 152 74 212
10 26 18 57 18 70 0 13 9 37 20 53 11 17 20 41 21 55 0 14 12 50 27 80 l27 55
70 5 c58 4 70 8 73 24 5 25 -16 37 -56 30 -61 -12 -79 33 -42 106 11 22 20 47
20 57 0 10 7 31 15 47 42 79 4 59 -115 -63z M21577 2633 c-11 -10 -8 -43 3
-43 6 0 10 11 10 25 0 26 -2 29 -13 18z M29725 2469 c-102 -8 -165 -31 -284
-104 -94 -58 -241 -242 -241 -302 0 -10 -9 -35 -20 -56 -14 -26 -20 -56 -20
-100 0 -43 6 -74 20 -100 11 -20 20 -43 20 -51 0 -25 102 -105 167 -131 112
-45 224 -27 393 62 121 63 280 238 280 307 0 8 9 33 20 57 31 68 28 193 -6
256 -67 128 -165 176 -329 162z m126 -62 c65 -60 72 -78 71 -182 0 -72 -6
-105 -21 -141 -12 -26 -21 -54 -21 -64 0 -72 -170 -304 -245 -336 -19 -7 -38
-21 -43 -30 -15 -27 -147 -16 -190 16 -66 49 -85 97 -80 208 2 71 8 104 21
122 9 13 17 34 17 47 0 73 163 308 242 349 18 9 38 23 46 30 9 10 38 14 90 14
73 0 79 -2 113 -33z M8755 2460 c-11 -5 -39 -9 -62 -9 -47 -1 -93 -16 -93 -30
0 -5 16 -18 35 -30 38 -22 45 -52 20 -85 -8 -11 -15 -34 -15 -52 0 -17 -9 -51
-20 -75 -11 -24 -20 -55 -20 -69 0 -14 -7 -38 -16 -55 -9 -16 -22 -55 -29 -85
-7 -30 -27 -95 -44 -145 -17 -49 -35 -101 -40 -115 -5 -14 -12 -32 -15 -41
-13 -29 22 -52 71 -46 51 5 73 21 73 53 0 12 14 58 31 101 17 43 36 92 43 108
6 17 23 50 36 73 14 24 33 57 42 74 9 17 35 51 57 75 23 24 41 47 41 51 0 5
38 47 85 95 91 94 123 108 146 65 13 -27 59 -67 75 -68 27 0 81 76 87 125 14
102 -48 125 -162 58 -71 -42 -170 -136 -216 -204 -16 -24 -46 -65 -67 -90 -21
-26 -38 -52 -38 -59 0 -6 -8 -10 -17 -8 -26 5 -28 43 -4 82 12 18 21 44 21 57
1 13 9 42 20 64 11 22 20 54 20 70 0 17 9 43 19 59 33 50 -3 82 -64 56z
M10198 2460 c-9 -6 -57 -13 -106 -16 -50 -4 -96 -10 -103 -14 -19 -12 0 -30
32 -30 69 0 84 -65 38 -167 -11 -23 -19 -52 -19 -65 0 -13 -7 -33 -15 -45 -8
-12 -18 -43 -21 -70 -4 -26 -15 -62 -25 -79 -11 -17 -19 -43 -19 -58 0 -15 -9
-44 -20 -66 -11 -22 -20 -52 -20 -67 0 -15 -9 -43 -21 -62 -12 -20 -19 -46
-17 -65 3 -29 5 -31 50 -34 58 -4 93 25 103 84 6 37 37 122 56 154 5 8 17 31
25 50 9 19 31 54 50 77 19 23 34 44 34 47 0 25 217 255 280 298 52 36 130 49
156 27 21 -17 11 -121 -17 -165 -10 -17 -19 -42 -19 -55 0 -14 -8 -40 -19 -59
-10 -19 -21 -51 -25 -71 -4 -21 -13 -42 -21 -49 -8 -7 -15 -24 -15 -39 0 -14
-7 -39 -16 -56 -15 -28 -31 -78 -53 -163 -8 -28 -5 -37 15 -62 35 -41 58 -45
105 -21 22 12 46 21 54 21 12 0 33 38 23 43 -61 32 -61 52 7 202 8 17 17 46
20 65 4 19 16 49 26 66 10 17 19 41 19 53 0 11 9 38 20 58 11 21 20 48 20 61
0 13 9 35 20 49 24 30 29 158 8 185 -60 73 -186 64 -303 -23 -55 -41 -174
-161 -249 -251 -26 -32 -54 -58 -62 -58 -20 0 -18 48 5 90 10 19 21 53 25 75
4 22 12 45 16 50 8 10 17 38 37 124 8 34 -23 51 -59 31z M11425 2450 c-198
-69 -384 -262 -435 -450 -34 -129 -34 -132 -11 -182 11 -26 21 -53 21 -61 0
-26 94 -109 145 -128 90 -34 261 -18 360 35 17 9 36 16 43 16 6 0 12 5 12 10
0 6 13 16 28 23 29 13 33 16 95 69 64 57 44 66 -36 15 -100 -63 -89 -56 -175
-93 -125 -53 -276 19 -332 157 l-23 57 23 39 22 40 91 7 c49 3 96 11 103 17 7
6 35 12 61 14 26 2 66 13 88 24 21 12 47 21 56 21 9 0 27 8 40 19 13 10 34 21
45 25 25 8 113 90 139 129 26 40 26 129 0 157 -56 62 -239 82 -360 40z m225
-42 c36 -40 40 -93 10 -131 -11 -14 -20 -29 -20 -34 0 -31 -184 -163 -227
-163 -7 0 -20 -9 -30 -19 -15 -16 -36 -20 -118 -23 -96 -3 -100 -2 -103 19 -4
25 54 147 98 207 32 43 144 136 165 136 6 0 20 9 30 20 15 17 31 20 92 20 70
0 75 -1 103 -32z M12228 2464 c-4 -3 -39 -10 -78 -14 -69 -8 -111 -27 -83 -37
7 -3 23 -13 35 -23 33 -27 13 -131 -74 -375 -5 -16 -15 -48 -20 -70 -6 -22
-16 -52 -24 -66 -7 -14 -16 -46 -20 -70 -4 -24 -15 -58 -26 -76 -12 -21 -18
-46 -16 -70 3 -35 6 -38 37 -41 19 -2 44 -1 56 2 28 7 65 78 65 123 0 17 9 42
20 56 11 14 20 33 20 44 1 22 36 93 75 152 17 24 35 51 40 60 6 9 16 23 23 31
7 8 26 33 43 55 53 69 151 175 162 175 6 0 18 7 28 16 23 20 52 6 68 -34 28
-68 99 -52 132 30 50 122 -25 176 -144 103 -87 -51 -243 -214 -287 -297 -30
-58 -87 -88 -76 -40 14 58 59 199 73 229 24 51 23 137 -2 141 -12 2 -24 0 -27
-4z M13020 2448 c-160 -72 -169 -228 -23 -384 137 -147 173 -205 173 -283 0
-53 -8 -67 -64 -110 -36 -29 -44 -31 -122 -31 -73 0 -85 2 -94 20 -6 11 -17
20 -25 20 -17 0 -84 78 -90 105 -2 11 -7 37 -10 58 -7 44 -38 49 -42 7 -2 -14
-13 -69 -25 -123 -25 -110 -18 -138 24 -100 13 11 28 23 35 27 12 7 92 -14
150 -40 40 -18 162 -18 188 0 11 7 33 16 49 20 118 29 217 223 152 295 -9 10
-16 23 -16 31 0 15 -88 126 -172 216 -59 63 -98 124 -98 154 0 8 18 36 41 63
l41 47 74 0 c73 0 76 -1 112 -37 54 -54 75 -91 82 -143 8 -68 32 -60 46 15 6
33 16 70 22 82 7 12 12 41 12 64 0 38 -2 41 -22 34 -49 -17 -125 -17 -156 -1
-46 24 -184 20 -242 -6z M14460 2460 c-14 -4 -43 -8 -65 -9 -62 -2 -72 -18
-34 -57 l31 -32 -16 -48 c-8 -27 -29 -89 -47 -139 -17 -49 -37 -113 -44 -142
-7 -28 -20 -62 -29 -75 -9 -12 -16 -33 -16 -46 0 -12 -9 -40 -20 -62 -11 -22
-20 -51 -20 -66 0 -15 -9 -42 -21 -60 -22 -37 -18 -53 23 -92 53 -49 143 -20
251 80 62 59 81 88 57 88 -5 0 -34 -25 -64 -55 -58 -60 -86 -68 -110 -33 -14
20 -14 25 4 56 11 18 20 45 20 60 0 15 9 44 20 65 11 20 20 47 20 59 0 13 7
37 16 53 9 17 22 53 29 80 8 28 37 118 66 201 29 83 49 159 46 168 -7 17 -53
20 -97 6z M15029 2460 c-9 -5 -59 -13 -110 -17 -102 -9 -127 -28 -59 -46 55
-14 63 -25 57 -77 -3 -25 -13 -58 -21 -75 -9 -16 -16 -40 -16 -51 0 -12 -9
-41 -20 -65 -11 -24 -20 -57 -20 -72 0 -16 -8 -41 -19 -55 -10 -15 -21 -48
-24 -75 -4 -26 -13 -57 -21 -70 -8 -12 -17 -41 -21 -64 -4 -24 -10 -45 -14
-48 -5 -2 -14 -25 -21 -50 -16 -58 -4 -75 55 -75 52 0 67 15 95 100 11 36 27
79 35 95 8 17 26 56 40 87 15 31 33 59 41 62 8 3 14 10 14 16 0 6 12 28 28 48
15 20 30 41 34 47 18 26 149 173 174 196 90 82 171 115 228 93 25 -9 22 -120
-4 -159 -11 -16 -20 -39 -20 -49 0 -10 -8 -37 -19 -60 -10 -23 -24 -57 -31
-76 -6 -19 -30 -84 -52 -145 -52 -147 -58 -166 -58 -196 0 -33 42 -72 77 -72
41 1 121 40 128 63 4 11 9 20 13 20 12 0 64 52 58 57 -3 3 -19 -9 -36 -26 -82
-82 -103 -6 -40 149 12 30 28 73 36 95 7 22 25 72 40 110 14 39 32 90 39 115
7 25 20 59 29 75 30 57 21 122 -23 166 -36 37 -42 39 -97 39 -91 -1 -197 -61
-302 -172 -101 -108 -122 -131 -122 -139 0 -13 -63 -68 -72 -63 -15 9 -8 64
12 104 11 22 20 52 20 67 0 16 7 38 15 50 24 34 39 121 25 138 -14 17 -28 18
-51 5z M17998 2465 c-3 -3 -32 -9 -64 -13 -65 -8 -80 -27 -48 -63 20 -23 7
-118 -27 -194 -10 -22 -19 -51 -19 -63 0 -13 -9 -35 -20 -49 -12 -15 -20 -41
-20 -62 0 -20 -9 -49 -20 -66 -11 -16 -20 -40 -20 -53 0 -12 -8 -39 -19 -60
-25 -50 -45 -167 -32 -190 22 -41 100 -61 134 -34 6 5 23 13 36 17 38 12 161
128 161 152 0 26 -26 11 -74 -42 -51 -57 -82 -69 -107 -39 -10 13 -10 21 0 47
7 18 17 50 21 72 5 22 16 54 24 70 9 17 16 41 16 55 0 14 9 39 20 55 11 17 20
43 20 59 0 16 8 47 19 70 19 42 42 108 66 186 7 25 20 63 28 85 8 21 13 45 10
52 -5 12 -74 19 -85 8z M20380 2451 c-221 -83 -360 -223 -436 -441 -77 -218
56 -406 283 -401 67 1 177 28 228 55 17 9 35 16 40 16 6 0 18 9 28 20 9 11 23
20 30 20 7 0 20 9 30 20 9 11 23 20 31 20 8 0 17 9 21 19 3 11 12 22 20 25 20
7 19 26 0 26 -8 0 -15 -4 -15 -9 0 -5 -12 -14 -27 -21 -34 -14 -88 -44 -105
-58 -28 -22 -135 -52 -189 -52 -123 0 -238 108 -239 223 0 70 17 82 131 91 51
4 98 11 104 15 5 5 30 11 55 14 25 4 63 15 85 27 21 11 47 20 56 20 9 0 27 8
40 18 13 10 37 24 53 32 114 58 188 199 140 268 -39 57 -85 72 -206 71 -79 -1
-127 -7 -158 -18z m224 -45 c31 -42 33 -82 6 -133 -37 -71 -160 -171 -237
-193 -21 -6 -47 -17 -57 -25 -28 -21 -194 -21 -202 0 -3 8 6 39 20 69 14 30
26 57 26 61 0 7 34 56 68 99 30 37 110 101 138 110 12 4 29 15 39 26 15 17 31
20 95 20 77 0 78 0 104 -34z M22788 2465 c-4 -4 -37 -10 -73 -15 -84 -10 -100
-24 -62 -52 35 -25 39 -107 7 -165 -11 -21 -20 -51 -20 -68 0 -17 -9 -48 -20
-70 -11 -22 -20 -46 -20 -53 0 -13 -35 -129 -65 -212 -69 -196 -69 -210 5
-210 55 0 85 28 96 92 7 37 56 165 82 215 45 84 87 153 94 153 4 0 19 17 32
38 32 51 141 168 190 203 44 33 66 28 85 -18 30 -74 95 -58 136 32 14 29 25
63 25 74 0 25 -45 61 -76 61 -83 0 -264 -154 -366 -312 -43 -67 -61 -83 -80
-72 -14 9 -1 72 23 110 10 17 19 46 19 63 0 18 9 49 19 70 11 20 21 60 23 87
3 46 1 49 -22 52 -14 2 -29 0 -32 -3z M24691 2459 c-13 -5 -63 -12 -112 -16
-48 -3 -93 -9 -100 -13 -20 -13 1 -30 37 -30 60 0 101 -75 59 -110 -8 -7 -15
-24 -15 -38 0 -25 -41 -160 -66 -219 -8 -17 -14 -37 -14 -45 0 -7 -9 -37 -20
-66 -11 -29 -20 -60 -20 -70 -1 -9 -9 -35 -20 -57 -11 -22 -19 -50 -20 -62 0
-12 -8 -35 -17 -53 -17 -30 -17 -32 1 -45 41 -31 124 -15 132 24 22 110 115
289 211 409 24 30 43 57 43 62 0 17 176 182 225 210 85 48 159 36 157 -27 -1
-29 -17 -81 -66 -213 -13 -36 -30 -81 -36 -100 -7 -19 -21 -53 -31 -76 -11
-23 -19 -52 -19 -66 0 -14 -8 -36 -19 -49 -25 -33 -34 -133 -15 -171 17 -32
83 -40 118 -13 11 8 28 15 38 15 29 0 34 30 8 50 -21 16 -22 22 -16 76 4 32
14 70 23 82 8 13 21 45 28 70 16 57 41 126 60 169 8 17 15 37 15 45 0 7 7 26
15 42 22 42 37 101 42 169 5 56 4 59 -32 92 -104 99 -313 -11 -517 -270 -46
-58 -85 -92 -95 -81 -3 2 11 52 31 109 20 57 36 112 36 122 0 10 9 33 21 51
41 68 14 119 -50 93z M25722 2449 c-25 -12 -59 -41 -82 -70 -72 -91 -54 -174
65 -313 175 -205 175 -205 175 -273 0 -65 -7 -77 -64 -122 -36 -29 -44 -31
-123 -31 -66 0 -85 3 -90 15 -3 9 -18 22 -34 31 -50 25 -89 90 -89 144 0 33
-5 50 -15 53 -20 8 -28 -8 -42 -83 -36 -188 -35 -195 22 -160 36 22 76 16 172
-26 125 -55 340 38 390 169 41 105 5 185 -165 361 -137 143 -150 187 -77 255
43 40 47 41 112 41 67 0 69 -1 119 -48 44 -40 53 -55 64 -105 22 -98 60 -104
60 -9 1 35 8 72 20 97 26 53 26 85 1 85 -11 0 -23 -4 -26 -10 -9 -15 -101 -12
-142 5 -53 22 -196 19 -251 -6z M28895 2460 c-11 -5 -39 -9 -61 -9 -61 -1 -74
-23 -34 -58 l32 -29 -17 -54 c-9 -30 -23 -75 -31 -100 -9 -25 -22 -65 -29 -90
-23 -75 -46 -144 -56 -165 -17 -40 -41 -111 -54 -164 -8 -30 -19 -59 -24 -64
-29 -29 8 -106 58 -122 28 -9 138 30 166 59 12 12 42 40 68 64 44 39 60 72 37
72 -5 0 -34 -25 -64 -55 -84 -86 -151 -58 -102 42 14 29 36 93 60 173 8 25 28
83 45 129 17 46 31 93 31 105 0 11 9 35 20 51 11 17 20 43 20 58 0 15 9 46 21
68 32 63 23 94 -26 96 -22 1 -49 -2 -60 -7z M30542 2459 c-13 -5 -62 -12 -108
-15 -111 -9 -137 -26 -65 -44 32 -8 55 -19 62 -32 11 -20 4 -84 -11 -103 -4
-5 -15 -35 -23 -65 -8 -30 -20 -68 -26 -85 -6 -16 -29 -91 -52 -165 -22 -74
-47 -149 -54 -165 -27 -65 -40 -146 -24 -156 22 -14 101 -6 110 11 26 50 49
109 49 126 0 16 68 147 113 219 31 50 144 187 205 248 86 88 146 129 198 135
110 12 110 -41 4 -308 -12 -30 -28 -76 -36 -103 -7 -26 -20 -57 -28 -69 -9
-12 -16 -36 -16 -52 0 -16 -9 -44 -21 -62 -15 -25 -19 -46 -17 -86 3 -50 5
-54 40 -73 l36 -19 56 28 c31 16 60 34 64 41 4 6 15 14 25 18 9 3 17 13 17 22
0 19 -9 19 -31 -1 -10 -9 -25 -14 -34 -11 -21 9 -20 95 2 126 9 13 20 44 25
69 4 25 15 53 23 62 8 9 15 27 15 39 0 12 7 36 16 53 8 16 22 49 29 72 8 22
25 75 39 116 14 41 26 96 26 123 0 132 -153 158 -309 53 -69 -46 -250 -236
-280 -293 -6 -13 -21 -23 -33 -23 -26 0 -20 58 12 121 11 21 20 48 20 59 0 12
7 35 16 51 21 42 34 125 20 139 -12 12 -23 12 -54 -1z M24204 2446 c-50 -13
-70 -29 -78 -61 -9 -36 -29 -31 -60 14 -28 40 -49 51 -100 51 l-29 0 38 -30
c21 -16 41 -30 46 -30 19 0 50 -128 40 -167 -5 -21 -12 -60 -16 -86 -12 -85
-112 -244 -195 -307 -17 -14 -38 -31 -47 -39 -33 -31 -83 -59 -144 -81 l-64
-23 -49 24 c-28 13 -55 33 -60 44 -6 11 -19 31 -28 44 -24 31 -23 79 2 116 11
17 20 46 21 65 0 20 13 57 30 85 16 28 34 61 41 75 47 95 216 260 268 260 6 0
26 12 44 27 l31 26 -55 -5 c-129 -14 -347 -186 -447 -353 -64 -108 -73 -140
-73 -264 0 -135 12 -161 91 -201 66 -34 208 -18 279 33 13 9 28 17 33 17 13 0
127 92 160 129 46 52 93 31 52 -23 -22 -29 -20 -138 3 -158 33 -29 59 -30 117
-4 63 29 64 31 31 61 -22 20 -23 25 -14 76 5 30 18 71 29 91 10 20 19 51 19
68 0 17 9 48 20 70 11 22 20 51 20 66 0 15 8 41 19 58 10 17 22 52 25 78 4 26
11 50 16 53 5 3 13 29 19 58 6 28 19 67 28 85 30 55 6 77 -63 58z M7870 2443
c-14 -3 -32 -11 -40 -18 -8 -7 -27 -16 -42 -20 -14 -4 -34 -15 -44 -26 -9 -10
-22 -19 -29 -19 -23 0 -182 -159 -226 -227 -61 -92 -89 -147 -89 -172 0 -12
-9 -38 -20 -58 -49 -92 0 -221 105 -276 109 -56 301 16 453 170 50 51 77 57
69 16 -37 -187 -1 -239 127 -183 51 23 56 34 24 51 -36 19 -38 29 -17 81 10
27 19 61 19 76 0 15 8 41 18 57 10 17 21 50 25 75 3 25 13 59 21 75 9 17 16
39 16 50 0 11 9 38 20 60 11 22 19 47 20 55 0 17 34 125 57 182 22 52 12 61
-56 53 -62 -8 -81 -18 -81 -47 0 -36 -32 -34 -66 6 -39 45 -127 69 -105 29 6
-12 26 -30 46 -42 19 -11 40 -33 46 -48 18 -45 5 -213 -19 -259 -11 -22 -25
-50 -31 -64 -26 -60 -102 -157 -148 -191 -19 -13 -44 -33 -56 -44 -22 -20 -74
-47 -151 -79 -51 -22 -121 -1 -166 50 -39 44 -44 154 -10 217 11 20 20 45 20
55 0 10 7 28 17 41 9 13 26 43 39 67 56 106 219 264 272 264 13 0 42 28 42 41
0 9 -16 10 -60 2z M27299 2403 c-130 -66 -314 -249 -343 -341 -4 -11 -13 -26
-21 -32 -8 -7 -15 -23 -15 -37 0 -13 -9 -41 -20 -63 -72 -141 30 -323 181
-322 113 1 275 86 383 201 17 17 36 31 43 31 17 0 16 -54 -2 -105 -20 -56 -19
-66 15 -104 34 -36 42 -37 124 -1 52 22 57 35 21 52 -32 14 -33 57 -5 111 11
20 20 49 20 64 1 16 9 46 20 68 11 22 20 54 20 70 0 17 9 44 20 60 11 17 20
44 20 60 0 17 9 47 20 68 11 20 20 45 20 55 0 9 13 55 29 100 37 103 34 116
-27 108 -25 -3 -51 -6 -59 -6 -8 0 -19 -13 -24 -29 -16 -46 -39 -48 -75 -5
-29 34 -36 37 -90 40 -33 2 -50 1 -39 -3 11 -3 26 -14 33 -24 7 -11 19 -19 26
-19 7 0 25 -14 40 -32 35 -43 39 -194 6 -255 -11 -21 -20 -45 -20 -53 0 -39
-162 -250 -192 -250 -4 0 -16 -8 -26 -17 -76 -74 -192 -113 -252 -86 -79 36
-90 56 -90 162 0 79 4 101 20 126 11 17 20 40 20 51 0 12 7 27 15 34 8 6 17
21 21 32 3 11 19 39 35 62 17 22 40 57 53 76 31 47 164 149 195 150 7 0 26 11
43 25 l30 25 -40 0 c-27 0 -68 -15 -133 -47z M8525 2430 c-14 -23 10 -36 35
-20 13 9 13 11 0 20 -19 12 -27 12 -35 0z M25243 1783 c-4 -10 -16 -25 -28
-35 -11 -9 -17 -20 -12 -24 8 -9 66 46 67 64 0 18 -20 15 -27 -5z M31092 1788
c-7 -7 -12 -16 -12 -20 0 -12 28 -10 36 3 10 17 -10 31 -24 17z M26612 1768
c-7 -7 -12 -17 -12 -23 0 -7 -11 -17 -25 -23 -14 -6 -25 -18 -25 -27 0 -18 15
-20 30 -2 6 6 21 25 35 40 34 38 31 69 -3 35z"/>
</g>
<g class="accent" transform="translate(0.000000,1216.000000) scale(0.100000,-0.100000)">
<path d="M17230 11179 c-36 -4 -121 -13 -190 -18 -69 -6 -188 -17 -265 -26
-77 -8 -179 -14 -226 -15 -47 0 -108 -6 -135 -14 -27 -8 -116 -20 -199 -26
-82 -6 -172 -17 -200 -25 -27 -7 -97 -25 -155 -39 -171 -41 -194 -49 -400
-150 -138 -68 -196 -99 -240 -127 -14 -9 -81 -51 -150 -94 -131 -82 -364 -232
-415 -268 -16 -12 -61 -43 -100 -69 -125 -85 -218 -152 -320 -229 -55 -41
-138 -104 -185 -139 -47 -35 -112 -87 -145 -115 -33 -28 -72 -60 -86 -71 -60
-43 -301 -245 -404 -338 -60 -54 -144 -129 -185 -166 -41 -37 -105 -94 -142
-126 -74 -64 -605 -597 -733 -735 -99 -106 -418 -472 -530 -609 -33 -40 -83
-100 -111 -134 -43 -52 -159 -201 -229 -295 -11 -14 -39 -50 -63 -80 -24 -29
-53 -70 -66 -90 -13 -20 -45 -64 -72 -98 -27 -34 -64 -84 -82 -110 -18 -26
-43 -64 -57 -83 -13 -19 -73 -109 -134 -200 -61 -91 -132 -196 -158 -233 -140
-202 -135 -238 32 -223 130 12 271 109 368 256 20 30 56 81 79 112 42 57 192
262 277 381 24 34 71 96 105 137 33 41 89 111 124 155 35 44 73 91 86 105 12
14 55 66 96 115 40 50 81 97 89 106 9 10 57 63 106 120 211 241 724 759 936
945 88 77 306 265 396 340 96 81 383 303 573 443 74 55 155 115 179 133 24 18
59 42 76 53 18 11 79 51 136 89 235 158 400 266 404 266 2 0 78 43 167 96 90
53 194 115 231 137 74 43 198 110 236 127 13 6 66 35 117 65 51 30 95 55 98
55 2 0 80 36 173 81 187 90 343 164 388 184 17 8 59 27 95 43 36 16 94 42 130
57 36 15 88 38 116 50 29 13 67 26 85 30 19 4 39 11 45 16 23 19 422 169 489
185 29 6 135 61 135 70 0 6 -118 2 -190 -7z M22542 7489 c-39 -5 -99 -15 -131
-24 -32 -8 -68 -15 -80 -15 -27 0 -149 -49 -180 -72 -13 -10 -28 -18 -34 -18
-40 0 -257 -177 -315 -257 -26 -35 -63 -85 -83 -112 -50 -65 -104 -193 -140
-328 -28 -107 -29 -121 -29 -328 0 -259 18 -227 -194 -341 -214 -114 -253
-158 -191 -219 22 -23 32 -25 117 -26 145 0 228 -12 244 -34 18 -24 19 -820 3
-1466 l-11 -433 -28 -56 c-26 -52 -33 -58 -92 -82 -35 -15 -88 -29 -118 -33
-112 -13 -198 -106 -146 -158 23 -23 151 -27 736 -26 568 2 575 2 600 49 28
53 -62 121 -175 134 -148 16 -270 79 -303 155 -21 51 -31 1861 -10 1901 21 38
68 49 175 39 50 -4 160 -10 243 -11 l152 -3 22 28 c12 15 31 51 41 80 10 29
31 79 47 112 34 73 36 108 6 129 -19 14 -67 16 -321 16 -325 0 -350 4 -363 56
-12 49 3 584 20 680 59 344 343 513 645 383 111 -47 202 -175 248 -348 36
-138 57 -171 108 -171 47 0 81 50 111 165 18 67 60 199 81 254 33 88 40 149
19 188 -15 30 -71 73 -96 73 -6 0 -23 9 -37 20 -14 11 -34 20 -45 20 -10 0
-33 7 -49 16 -79 41 -334 77 -447 63z M25445 7487 c-219 -72 -274 -318 -105
-470 116 -105 277 -89 389 38 42 48 54 101 46 202 -7 77 -11 88 -45 131 -67
85 -193 129 -285 99z M18714 7373 c-14 -16 -35 -48 -46 -73 -34 -74 -108 -251
-134 -318 -13 -34 -42 -100 -64 -147 -22 -46 -40 -89 -40 -94 0 -5 -7 -22 -15
-38 -31 -60 -225 -512 -225 -525 0 -7 -6 -22 -14 -33 -7 -11 -26 -51 -41 -90
-15 -38 -42 -101 -60 -140 -18 -38 -45 -99 -60 -135 -37 -89 -82 -189 -166
-366 -10 -22 -19 -47 -19 -55 0 -8 -4 -19 -9 -25 -5 -5 -26 -47 -46 -94 -20
-47 -49 -112 -65 -145 -15 -33 -59 -130 -95 -215 -37 -85 -76 -171 -86 -190
-11 -19 -19 -38 -19 -42 0 -4 -20 -50 -45 -101 -25 -52 -45 -97 -45 -101 0 -3
-20 -48 -44 -98 -23 -51 -57 -127 -75 -168 -80 -190 -191 -371 -264 -431 -58
-48 -157 -95 -216 -103 -120 -16 -181 -118 -98 -164 29 -16 80 -17 594 -18
397 -1 570 2 585 10 18 9 24 22 26 55 6 79 -57 120 -188 122 -245 3 -278 153
-109 508 27 57 49 108 49 113 0 35 165 390 194 416 31 29 1537 31 1583 2 42
-26 78 -84 124 -200 20 -52 51 -131 68 -175 18 -44 51 -127 73 -185 22 -58 49
-123 59 -146 26 -57 26 -183 -1 -241 -27 -60 -90 -87 -225 -97 -132 -9 -181
-51 -155 -132 18 -55 13 -55 777 -52 l701 3 26 24 c61 57 -8 139 -132 157 -26
3 -66 15 -89 25 -23 11 -51 19 -61 19 -26 0 -133 79 -165 122 -23 30 -102 187
-266 531 -34 70 -61 130 -61 133 0 3 -35 79 -78 168 -44 89 -84 178 -91 199
-7 20 -17 39 -22 42 -5 4 -9 13 -9 20 0 8 -26 70 -59 137 -81 171 -104 222
-136 303 -15 38 -33 78 -40 90 -8 11 -23 44 -34 72 -11 29 -36 85 -56 124 -19
39 -35 76 -35 82 0 6 -9 29 -19 51 -11 23 -34 75 -51 116 -18 41 -44 98 -57
125 -13 28 -38 86 -55 130 -16 44 -41 103 -53 131 -13 27 -40 88 -60 135 -19
46 -42 97 -50 112 -8 16 -15 34 -15 40 0 6 -9 29 -19 51 -10 23 -31 70 -46
106 -15 36 -40 94 -56 130 -15 36 -42 101 -59 145 -18 44 -40 98 -51 121 -10
22 -19 46 -19 52 0 7 -20 52 -45 101 -68 136 -140 177 -201 114z m23 -922 c24
-47 48 -100 54 -119 6 -20 20 -49 30 -66 9 -17 30 -62 45 -101 15 -38 33 -79
40 -90 17 -26 149 -323 159 -355 4 -14 24 -61 45 -105 66 -136 112 -238 125
-275 7 -19 36 -86 64 -148 55 -122 61 -152 34 -173 -25 -21 -1292 -21 -1317 1
-22 18 -17 57 17 131 13 30 32 77 42 104 18 51 32 82 105 240 65 138 110 242
110 252 0 4 15 40 34 78 38 77 89 191 165 365 172 395 178 402 248 261z
M30023 6190 c-116 -8 -319 -48 -411 -81 -30 -10 -64 -19 -76 -19 -12 0 -39 -9
-61 -20 -22 -11 -45 -20 -51 -20 -23 0 -170 -80 -194 -105 -20 -22 -26 -43
-36 -138 -7 -62 -20 -143 -28 -182 -25 -109 -22 -190 9 -220 57 -57 115 -13
212 163 59 107 201 259 277 298 28 14 62 32 76 39 111 58 251 72 361 37 35
-11 77 -23 92 -27 33 -7 176 -144 201 -192 53 -105 83 -389 46 -448 -21 -34
-30 -39 -165 -92 -49 -19 -94 -39 -100 -43 -5 -4 -39 -20 -75 -35 -36 -15 -85
-36 -110 -47 -196 -85 -603 -291 -689 -348 -112 -75 -236 -210 -256 -280 -4
-14 -16 -39 -26 -56 -82 -136 -78 -433 9 -624 131 -290 523 -415 901 -288 89
30 319 161 376 215 110 104 151 98 196 -26 78 -219 294 -294 539 -189 138 58
380 287 380 358 0 66 -51 77 -125 25 -143 -99 -248 -110 -323 -35 -38 38 -45
57 -80 195 -7 30 2 594 12 750 14 213 18 722 6 780 -7 33 -18 98 -25 145 -20
133 -64 218 -161 310 -175 167 -368 222 -701 200z m431 -1199 c17 -18 18 -45
13 -353 -8 -517 -24 -585 -182 -744 -211 -214 -439 -293 -604 -209 -190 95
-268 270 -239 540 27 251 187 398 742 679 220 111 242 118 270 87z M24302
6174 c-135 -36 -317 -179 -451 -353 -107 -140 -140 -164 -171 -126 -15 18 2
251 25 341 33 129 -29 172 -155 105 -104 -54 -264 -134 -330 -164 -60 -27 -88
-36 -333 -108 -78 -22 -122 -102 -80 -145 15 -15 29 -16 113 -8 227 21 271 10
320 -77 l25 -44 0 -865 0 -865 -30 -60 c-32 -63 -100 -114 -154 -115 -13 0
-38 -9 -55 -19 -17 -11 -53 -23 -81 -27 -85 -12 -175 -87 -160 -134 15 -47 31
-48 685 -48 637 -1 669 1 694 40 30 49 -67 138 -153 138 -28 1 -65 10 -96 25
-27 14 -55 25 -62 25 -27 0 -121 101 -146 157 l-26 58 -7 505 c-10 759 9 890
158 1110 75 112 187 227 267 275 63 38 66 38 158 38 113 -1 150 -22 179 -100
35 -94 70 -133 121 -133 43 0 68 49 84 166 6 44 17 101 25 128 22 75 19 187
-6 219 -55 70 -221 98 -358 61z M27635 6183 c-57 -7 -262 -61 -291 -76 -16 -8
-44 -18 -61 -22 -18 -3 -35 -11 -39 -16 -3 -5 -20 -16 -39 -23 -107 -45 -338
-232 -420 -340 -82 -108 -107 -143 -116 -161 -5 -11 -20 -38 -34 -60 -64 -108
-130 -281 -176 -470 -34 -142 -32 -507 4 -655 66 -267 151 -435 302 -602 209
-231 476 -348 795 -348 101 0 269 24 309 44 14 8 41 17 60 21 141 30 691 400
691 465 0 26 -31 61 -66 76 -38 16 -127 -6 -181 -44 -30 -21 -227 -122 -239
-122 -4 0 -30 -11 -59 -24 -139 -66 -392 -93 -505 -53 -25 9 -62 19 -82 22
-20 4 -51 18 -69 31 -18 13 -37 24 -41 24 -12 0 -106 67 -166 119 -50 43 -162
188 -162 209 0 5 -9 20 -19 34 -11 13 -23 38 -27 54 -3 16 -13 39 -21 52 -104
166 -127 759 -39 1001 9 24 16 50 16 58 0 8 6 29 14 46 8 18 23 53 34 79 65
152 242 339 352 373 14 4 32 14 42 22 27 24 157 55 253 60 99 5 280 -30 315
-62 9 -8 21 -15 27 -15 13 0 101 -67 157 -119 41 -38 126 -198 126 -237 0 -12
7 -41 15 -64 8 -23 15 -57 15 -74 0 -55 52 -116 100 -116 16 0 72 53 82 79 11
27 50 201 69 306 6 33 19 92 29 130 24 89 34 167 26 200 -7 27 -110 82 -199
106 -23 6 -47 15 -52 19 -11 9 -151 43 -270 66 -65 12 -384 17 -460 7z M25555
6134 c-73 -36 -93 -44 -210 -89 -121 -46 -280 -95 -402 -125 -86 -21 -131
-102 -83 -150 23 -23 18 -22 170 -24 139 -1 186 -17 218 -74 41 -74 44 -135
47 -837 3 -720 -8 -978 -41 -1042 -21 -40 -100 -103 -128 -103 -12 0 -37 -9
-57 -19 -20 -11 -58 -23 -85 -27 -56 -8 -130 -53 -146 -90 -15 -33 16 -76 61
-85 56 -12 1170 -10 1212 1 107 29 37 151 -102 179 -24 5 -57 16 -74 25 -16 9
-38 16 -48 16 -40 0 -116 60 -144 115 -27 50 -55 703 -42 955 5 91 13 341 18
555 5 215 15 464 20 555 15 232 15 234 -15 269 -35 42 -78 40 -169 -5z"/>
</g>
</svg>